# xmcd CD database file
#
# Track frame offsets:
#	150
#	17460
#	35687
#	50085
#	66192
#	83195
#	86635
#	102077
#	119325
#	136180
#	155252
#
# Disc length: 2291 seconds
#
# Revision: 0
# Processed by: cddbd v1.5.1PL0 Copyright (c) Steve Scherf et al.
# Submitted via: CDex 1.51
#
DISCID=8808f10b
DTITLE=Pennebaker - Pennebaker
DYEAR=2005
DGENRE=Rock
TTITLE0=Runnaway heart
TTITLE1=Say you remember
TTITLE2=I'm into making up(not breaking up)
TTITLE3=Living without me now(the game isn't over)
TTITLE4=In my dreams(love lives)
TTITLE5=Second fall
TTITLE6=Now that I found you(I found myself)
TTITLE7=I've seen beauty
TTITLE8=Must have been blind
TTITLE9=Seeds of love&change
TTITLE10=I feel I could do
EXTD=YEAR: 2005
EXTT0=
EXTT1=
EXTT2=
EXTT3=
EXTT4=
EXTT5=
EXTT6=
EXTT7=
EXTT8=
EXTT9=
EXTT10=
PLAYORDER=
